<svg width="20" height="18" viewBox="0 0 20 18" fill="none" xmlns="http://www.w3.org/2000/svg">
<path d="M3.75391 14.1097C2.95411 14.1097 2.18708 13.792 1.62154 13.2264C1.056 12.6609 0.738281 11.8938 0.738281 11.0941V3.20703C0.738281 2.40724 1.056 1.6402 1.62154 1.07466C2.18708 0.509123 2.95411 0.191406 3.75391 0.191406H16.2803C16.6764 0.191406 17.0685 0.269408 17.4344 0.420957C17.8003 0.572506 18.1327 0.794636 18.4127 1.07466C18.6927 1.35469 18.9149 1.68713 19.0664 2.053C19.218 2.41887 19.296 2.81101 19.296 3.20703V11.0941C19.296 11.4901 19.218 11.8822 19.0664 12.2481C18.9149 12.614 18.6927 12.9464 18.4127 13.2264C18.1327 13.5064 17.8003 13.7286 17.4344 13.8801C17.0685 14.0317 16.6764 14.1097 16.2803 14.1097H10.9561L6.30559 17.5892C6.13327 17.7182 5.92846 17.7967 5.71407 17.8159C5.49969 17.8351 5.28419 17.7943 5.09169 17.698C4.89919 17.6017 4.73729 17.4537 4.62409 17.2706C4.5109 17.0876 4.45088 16.8766 4.45075 16.6614V14.1097H3.75483H3.75391ZM10.4941 12.7178H16.2803C16.711 12.7178 17.124 12.5468 17.4285 12.2422C17.7331 11.9377 17.9041 11.5247 17.9041 11.0941V3.20703C17.9041 2.77637 17.7331 2.36335 17.4285 2.05883C17.124 1.75431 16.711 1.58323 16.2803 1.58323H3.75391C3.32325 1.58323 2.91023 1.75431 2.60571 2.05883C2.30119 2.36335 2.13011 2.77637 2.13011 3.20703V11.0941C2.13011 11.9904 2.85757 12.7178 3.75391 12.7178H5.84072V16.1974L10.4941 12.7178Z" fill="white"/>
</svg>
