<svg width="8" height="8" viewBox="0 0 8 8" fill="none" xmlns="http://www.w3.org/2000/svg">
<path d="M4.06698 2.23268L0.480469 5.81918V7.61244L2.27372 7.61243L5.86022 4.02592M4.06698 2.23268L5.35302 0.94662L5.35379 0.945858C5.53083 0.768826 5.6195 0.680154 5.72171 0.646942C5.81176 0.617686 5.90875 0.617686 5.99879 0.646942C6.10094 0.68013 6.18951 0.768702 6.36629 0.945482L7.14626 1.72546C7.3238 1.903 7.41261 1.99181 7.44587 2.09417C7.47513 2.18421 7.47512 2.2812 7.44586 2.37124C7.41263 2.47353 7.32395 2.56221 7.14667 2.73949L7.14627 2.73987L5.86022 4.02592M4.06698 2.23268L5.86022 4.02592" stroke="#0F2A5D" stroke-width="0.448313" stroke-linecap="round" stroke-linejoin="round"/>
</svg>
