<svg width="19" height="17" viewBox="0 0 19 17" fill="none" xmlns="http://www.w3.org/2000/svg">
<path d="M10.2776 1.58533L9.51673 2.34805L8.75215 1.58347C7.81677 0.648203 6.54815 0.122825 5.2254 0.122912C3.90265 0.122999 2.63411 0.648544 1.69884 1.58393C0.763573 2.51932 0.238194 3.78793 0.238281 5.11069C0.238368 6.43344 0.763914 7.70198 1.6993 8.63725L9.02495 15.9629C9.15544 16.0932 9.33231 16.1664 9.51673 16.1664C9.70115 16.1664 9.87803 16.0932 10.0085 15.9629L17.3407 8.63539C18.2749 7.69992 18.7996 6.43182 18.7995 5.1097C18.7993 3.78759 18.2743 2.51962 17.3397 1.5844C16.8761 1.12049 16.3257 0.752487 15.7198 0.501406C15.1139 0.250326 14.4645 0.121094 13.8087 0.121094C13.1528 0.121094 12.5034 0.250326 11.8975 0.501406C11.2917 0.752487 10.7412 1.12049 10.2776 1.5844V1.58533ZM16.3534 7.65369L9.51673 14.4876L2.68286 7.65369C2.34607 7.32046 2.07845 6.92396 1.8954 6.48696C1.71234 6.04997 1.61746 5.58111 1.6162 5.10733C1.61494 4.63354 1.70733 4.16418 1.88805 3.72622C2.06878 3.28826 2.33428 2.89034 2.6693 2.55532C3.00431 2.2203 3.40224 1.9548 3.8402 1.77408C4.27816 1.59335 4.74752 1.50096 5.2213 1.50222C5.69509 1.50348 6.16395 1.59836 6.60094 1.78142C7.03793 1.96447 7.43444 2.23209 7.76767 2.56888L9.02774 3.82802C9.09329 3.89366 9.17131 3.94552 9.25721 3.98057C9.3431 4.01561 9.43513 4.03313 9.52789 4.03209C9.62065 4.03106 9.71227 4.01148 9.79736 3.97453C9.88244 3.93757 9.95928 3.88397 10.0234 3.81689L11.2612 2.56888C11.9434 1.93381 12.8454 1.58812 13.7774 1.60452C14.7094 1.62092 15.5986 1.99813 16.2582 2.65681C16.9177 3.31549 17.296 4.20428 17.3136 5.13622C17.3312 6.06816 16.9867 6.9706 16.3525 7.65369H16.3534Z" fill="white"/>
</svg>
