<svg width="19" height="19" viewBox="0 0 19 19" fill="none" xmlns="http://www.w3.org/2000/svg">
<path d="M11.9389 0.700178L11.8675 0.63801C11.7337 0.536125 11.5675 0.486267 11.3997 0.497701C11.232 0.509136 11.0741 0.581084 10.9553 0.700178L10.8923 0.772553C10.7908 0.90724 10.7413 1.07401 10.7529 1.24224C10.7645 1.41047 10.8364 1.56888 10.9553 1.68837L12.7842 3.5228H6.26953L6.05333 3.52651C2.82244 3.64064 0.238281 6.3046 0.238281 9.57632C0.238281 11.1444 0.832127 12.5734 1.80826 13.6497L1.87507 13.7138C2.00636 13.8261 2.17468 13.8856 2.34737 13.8808C2.52007 13.876 2.68482 13.8072 2.80967 13.6878C2.93452 13.5684 3.01056 13.4068 3.02303 13.2345C3.03551 13.0622 2.98353 12.8914 2.87718 12.7553L2.69161 12.5409C2.0034 11.7061 1.62799 10.6573 1.63011 9.57539C1.63011 7.00423 3.70764 4.91927 6.26953 4.91927H12.6543L10.9544 6.62658L10.8923 6.69895C10.7908 6.83364 10.7413 7.00041 10.7529 7.16864C10.7645 7.33687 10.8364 7.49528 10.9553 7.61477C11.0198 7.67953 11.0965 7.7309 11.1809 7.76596C11.2653 7.80102 11.3557 7.81907 11.4471 7.81907C11.5385 7.81907 11.629 7.80102 11.7134 7.76596C11.7978 7.7309 11.8744 7.67953 11.9389 7.61477L14.8914 4.65204L14.9536 4.57966C15.0552 4.44508 15.1048 4.27838 15.0934 4.11015C15.082 3.94192 15.0103 3.78346 14.8914 3.66384L11.9389 0.700178ZM17.1536 5.43332C17.0193 5.3223 16.8482 5.26566 16.6741 5.27459C16.5 5.28351 16.3356 5.35734 16.2133 5.48151C16.091 5.60569 16.0197 5.77119 16.0134 5.94537C16.0071 6.11955 16.0663 6.28977 16.1793 6.42244C16.969 7.28234 17.4063 8.4079 17.4041 9.57539C17.4041 12.1475 15.3266 14.2324 12.7647 14.2324H6.32335L8.09097 12.4593L8.15963 12.3795C8.24877 12.2578 8.29628 12.1107 8.29511 11.9599C8.29394 11.8091 8.24415 11.6627 8.15314 11.5425L8.09097 11.4711L8.01303 11.4033C7.89208 11.3135 7.7452 11.2655 7.59455 11.2665C7.4439 11.2675 7.29766 11.3175 7.17793 11.4089L7.10741 11.4711L4.15488 14.4347L4.08715 14.5136C3.99788 14.6351 3.9502 14.7822 3.9512 14.933C3.95221 15.0838 4.00183 15.2302 4.09271 15.3505L4.15488 15.422L7.10741 18.3857L7.18535 18.4525C7.45722 18.6566 7.84415 18.6334 8.09097 18.3847C8.20995 18.2652 8.28183 18.1068 8.29342 17.9386C8.30501 17.7704 8.25553 17.6036 8.15406 17.4689L8.09097 17.3975L6.32892 15.6289H12.7647L12.9809 15.6252C16.2118 15.5111 18.796 12.8462 18.796 9.57539C18.7984 8.06718 18.2367 6.61258 17.2214 5.49734L17.1536 5.43332Z" fill="white"/>
</svg>
