<svg width="14" height="18" viewBox="0 0 14 18" fill="none" xmlns="http://www.w3.org/2000/svg">
<path d="M1.62577 17.6857C1.52173 17.7606 1.39905 17.8053 1.27125 17.8148C1.14345 17.8244 1.01549 17.7984 0.901477 17.7399C0.787468 17.6814 0.691839 17.5925 0.625133 17.483C0.558427 17.3736 0.523236 17.2479 0.523438 17.1197V3.20703C0.523438 2.40724 0.841155 1.6402 1.40669 1.07466C1.97223 0.509123 2.73927 0.191406 3.53906 0.191406H10.4973C11.2967 0.191652 12.0634 0.50935 12.6287 1.07466C13.194 1.63997 13.5117 2.40663 13.512 3.2061V17.1207C13.512 17.2487 13.4767 17.3743 13.4099 17.4836C13.3431 17.5929 13.2475 17.6817 13.1335 17.7401C13.0195 17.7985 12.8916 17.8244 12.7639 17.8148C12.6362 17.8052 12.5136 17.7605 12.4096 17.6857L7.0177 13.8063L1.62484 17.6848L1.62577 17.6857ZM12.1201 3.2061C12.1201 2.77545 11.9491 2.36243 11.6445 2.0579C11.34 1.75338 10.927 1.58231 10.4963 1.58231H3.53999C3.10933 1.58231 2.69631 1.75338 2.39179 2.0579C2.08727 2.36243 1.91619 2.77545 1.91619 3.2061V15.7622L6.61314 12.3847C6.73154 12.2996 6.87371 12.2537 7.01956 12.2537C7.16541 12.2537 7.30758 12.2996 7.42597 12.3847L12.1211 15.7622V3.20703L12.1201 3.2061Z" fill="white"/>
</svg>
