<svg width="19" height="19" viewBox="0 0 19 19" fill="none" xmlns="http://www.w3.org/2000/svg">
<path d="M13.1738 2.52801C10.316 -0.329794 5.68136 -0.329795 2.82355 2.52801C-0.0342543 5.38582 -0.0342543 10.0204 2.82355 12.8782C5.35519 15.4099 9.28157 15.6957 12.1301 13.7418L15.693 17.7272C16.2987 18.4075 17.3518 18.4354 17.9948 17.7924L18.088 17.6992C18.731 17.0562 18.703 16.0032 18.0227 15.3975L14.0373 11.8345C15.9943 8.98293 15.7054 5.05966 13.1738 2.52801ZM11.397 11.1014C9.52076 12.9776 6.47657 12.9776 4.60036 11.1014C2.72415 9.22522 2.72415 6.18103 4.60036 4.30482C6.47657 2.42861 9.52076 2.42861 11.397 4.30482C13.2763 6.18414 13.2732 9.22522 11.397 11.1014Z" fill="white"/>
</svg>
